<svg xmlns="http://www.w3.org/2000/svg" xmlns:xlink="http://www.w3.org/1999/xlink" width="500" zoomAndPan="magnify" viewBox="0 0 375 374.999991" height="500" preserveAspectRatio="xMidYMid meet" version="1.0"><defs><g/><clipPath id="id1"><path d="M 167.136719 179 L 183 179 L 183 205.347656 L 167.136719 205.347656 Z M 167.136719 179 " clip-rule="nonzero"/></clipPath><clipPath id="id2"><path d="M 182 179 L 197.136719 179 L 197.136719 205.347656 L 182 205.347656 Z M 182 179 " clip-rule="nonzero"/></clipPath><clipPath id="id3"><path d="M 167.136719 170.097656 L 197.136719 170.097656 L 197.136719 189 L 167.136719 189 Z M 167.136719 170.097656 " clip-rule="nonzero"/></clipPath></defs><g fill="#ffffff" fill-opacity="1"><g transform="translate(92.423436, 202.836183)"><g><path d="M 16.796875 -27.28125 C 16.671875 -28.390625 17.207031 -28.46875 17.207031 -28.46875 L 17.207031 -28.675781 L 12.289062 -28.675781 L 12.289062 -28.46875 C 12.289062 -28.46875 12.863281 -28.390625 12.617188 -27.160156 L 10.816406 -17.371094 L 8.972656 -27.324219 C 8.808594 -28.390625 9.300781 -28.46875 9.300781 -28.46875 L 9.300781 -28.675781 L 4.425781 -28.675781 L 4.425781 -28.46875 C 4.425781 -28.46875 4.914062 -28.390625 4.832031 -27.363281 L 1.1875 -1.515625 C 1.023438 -0.285156 0.410156 -0.203125 0.410156 -0.203125 L 0.410156 0 L 4.507812 0 L 4.507812 -0.203125 C 4.507812 -0.203125 3.933594 -0.285156 4.097656 -1.515625 L 6.675781 -20.5625 L 10.28125 -2.046875 L 10.527344 -2.046875 L 14.132812 -20.5625 L 16.714844 -1.515625 C 16.917969 -0.285156 16.34375 -0.203125 16.34375 -0.203125 L 16.34375 0 L 21.179688 0 L 21.179688 -0.203125 C 21.179688 -0.203125 20.605469 -0.285156 20.402344 -1.515625 Z M 16.796875 -27.28125 "/></g></g></g><g fill="#ffffff" fill-opacity="1"><g transform="translate(117.653692, 202.836183)"><g><path d="M 10.9375 -7.085938 C 10.28125 -5.324219 9.136719 -2.292969 7.085938 -2.292969 L 5.613281 -2.292969 L 5.613281 -14.5 C 7.292969 -14.417969 8.152344 -13.683594 8.890625 -11.757812 L 9.136719 -11.878906 C 8.683594 -13.273438 8.683594 -14.582031 8.683594 -15.527344 C 8.683594 -16.753906 8.683594 -18.066406 9.136719 -19.457031 L 8.890625 -19.582031 C 8.152344 -17.613281 7.292969 -16.878906 5.613281 -16.835938 L 5.613281 -24.292969 L 7.003906 -24.292969 C 9.09375 -24.292969 10.199219 -21.261719 10.855469 -19.457031 L 11.101562 -19.621094 C 10.40625 -21.835938 10.117188 -24.949219 10.527344 -26.546875 L 1.84375 -26.546875 L 1.84375 -26.339844 C 1.84375 -26.339844 2.375 -26.300781 2.375 -25.152344 L 2.375 -1.394531 C 2.375 -0.285156 1.84375 -0.203125 1.84375 -0.203125 L 1.84375 0 L 10.570312 0 C 10.199219 -1.597656 10.445312 -4.710938 11.183594 -6.921875 Z M 10.9375 -7.085938 "/></g></g></g><g fill="#ffffff" fill-opacity="1"><g transform="translate(133.300013, 202.836183)"><g><path d="M 0.777344 -26.546875 C 1.148438 -24.949219 0.902344 -21.835938 0.203125 -19.621094 L 0.410156 -19.457031 C 1.105469 -21.261719 2.210938 -24.292969 4.261719 -24.292969 L 4.671875 -24.292969 L 4.671875 -1.394531 C 4.671875 -0.285156 4.136719 -0.203125 4.136719 -0.203125 L 4.136719 0 L 8.4375 0 L 8.4375 -0.203125 C 8.4375 -0.203125 7.90625 -0.285156 7.90625 -1.433594 L 7.90625 -24.292969 L 8.273438 -24.292969 C 10.363281 -24.292969 11.46875 -21.261719 12.125 -19.457031 L 12.371094 -19.621094 C 11.675781 -21.835938 11.386719 -24.949219 11.796875 -26.546875 Z M 0.777344 -26.546875 "/></g></g></g><g fill="#ffffff" fill-opacity="1"><g transform="translate(149.51974, 202.836183)"><g><path d="M 8.480469 -25.152344 C 8.316406 -26.300781 8.847656 -26.339844 8.847656 -26.339844 L 8.847656 -26.546875 L 4.300781 -26.546875 L 4.300781 -26.339844 C 4.300781 -26.339844 4.832031 -26.300781 4.628906 -25.152344 L 0.984375 -1.394531 C 0.777344 -0.285156 0.203125 -0.203125 0.203125 -0.203125 L 0.203125 0 L 3.972656 0 L 3.972656 -0.203125 C 3.972656 -0.203125 3.441406 -0.285156 3.644531 -1.433594 L 4.300781 -5.570312 L 8.109375 -5.570312 L 8.765625 -1.269531 C 8.929688 -0.285156 8.4375 -0.203125 8.4375 -0.203125 L 8.4375 0 L 12.902344 0 L 12.902344 -0.203125 C 12.902344 -0.203125 12.371094 -0.285156 12.167969 -1.433594 Z M 6.1875 -19.007812 L 7.785156 -7.867188 L 4.628906 -7.867188 Z M 6.1875 -19.007812 "/></g></g></g><g fill="#ffffff" fill-opacity="1"><g transform="translate(166.263275, 202.836183)"><g/></g></g><g fill="#ffffff" fill-opacity="1"><g transform="translate(178.673995, 202.836183)"><g/></g></g><g fill="#ffffff" fill-opacity="1"><g transform="translate(191.084716, 202.836183)"><g/></g></g><g fill="#ffffff" fill-opacity="1"><g transform="translate(203.493741, 202.836183)"><g><path d="M 13.273438 -28.632812 C 13.273438 -28.675781 10.816406 -28.675781 1.066406 -28.632812 C 1.230469 -27.9375 1.230469 -26.953125 1.230469 -26.832031 C 1.230469 -23.226562 0.410156 -21.753906 0.410156 -21.015625 C 0.410156 -20.277344 0.859375 -19.746094 1.558594 -19.746094 C 2.253906 -19.746094 2.703125 -20.277344 2.703125 -20.890625 C 2.703125 -21.546875 2.171875 -22 1.597656 -22 C 1.351562 -22 1.105469 -21.917969 0.941406 -21.753906 C 1.71875 -23.679688 2.910156 -26.175781 4.875 -26.175781 L 5.40625 -26.175781 L 5.40625 -1.515625 C 5.40625 -0.285156 4.832031 -0.203125 4.832031 -0.203125 L 4.832031 0 L 9.503906 0 L 9.503906 -0.203125 C 9.503906 -0.203125 8.929688 -0.285156 8.929688 -1.515625 L 8.929688 -26.175781 L 9.464844 -26.175781 C 11.429688 -26.175781 12.617188 -23.679688 13.394531 -21.753906 C 13.230469 -21.917969 12.984375 -22 12.738281 -22 C 12.167969 -22 11.632812 -21.546875 11.632812 -20.890625 C 11.632812 -20.277344 12.085938 -19.746094 12.78125 -19.746094 C 13.476562 -19.746094 13.929688 -20.277344 13.929688 -21.015625 C 13.929688 -21.753906 13.109375 -23.226562 13.109375 -26.832031 C 13.109375 -26.953125 13.109375 -27.9375 13.273438 -28.632812 Z M 13.273438 -28.632812 "/></g></g></g><g fill="#ffffff" fill-opacity="1"><g transform="translate(221.47461, 202.836183)"><g><path d="M 10.9375 -7.085938 C 10.28125 -5.324219 9.136719 -2.292969 7.085938 -2.292969 L 5.613281 -2.292969 L 5.613281 -14.5 C 7.292969 -14.417969 8.152344 -13.683594 8.890625 -11.757812 L 9.136719 -11.878906 C 8.683594 -13.273438 8.683594 -14.582031 8.683594 -15.527344 C 8.683594 -16.753906 8.683594 -18.066406 9.136719 -19.457031 L 8.890625 -19.582031 C 8.152344 -17.613281 7.292969 -16.878906 5.613281 -16.835938 L 5.613281 -24.292969 L 7.003906 -24.292969 C 9.09375 -24.292969 10.199219 -21.261719 10.855469 -19.457031 L 11.101562 -19.621094 C 10.40625 -21.835938 10.117188 -24.949219 10.527344 -26.546875 L 1.84375 -26.546875 L 1.84375 -26.339844 C 1.84375 -26.339844 2.375 -26.300781 2.375 -25.152344 L 2.375 -1.394531 C 2.375 -0.285156 1.84375 -0.203125 1.84375 -0.203125 L 1.84375 0 L 10.570312 0 C 10.199219 -1.597656 10.445312 -4.710938 11.183594 -6.921875 Z M 10.9375 -7.085938 "/></g></g></g><g fill="#ffffff" fill-opacity="1"><g transform="translate(237.120929, 202.836183)"><g><path d="M 8.890625 -26.339844 C 8.890625 -26.339844 9.421875 -26.300781 9.421875 -25.152344 L 9.421875 -11.46875 L 5.367188 -26.546875 L 1.433594 -26.546875 L 1.433594 -26.339844 C 1.433594 -26.339844 1.964844 -26.300781 1.964844 -25.152344 L 1.964844 -1.394531 C 1.964844 -0.285156 1.433594 -0.203125 1.433594 -0.203125 L 1.433594 0 L 5.203125 0 L 5.203125 -0.203125 C 5.203125 -0.203125 4.671875 -0.285156 4.671875 -1.433594 L 4.671875 -17.289062 L 9.421875 0 L 12.125 0 L 12.125 -25.152344 C 12.125 -26.300781 12.65625 -26.339844 12.65625 -26.339844 L 12.65625 -26.546875 L 8.890625 -26.546875 Z M 8.890625 -26.339844 "/></g></g></g><g fill="#ffffff" fill-opacity="1"><g transform="translate(254.856058, 202.836183)"><g><path d="M 8.644531 -18.269531 C 8.683594 -20.441406 10.035156 -25.355469 11.019531 -26.871094 L 10.855469 -26.996094 C 10.488281 -26.464844 9.953125 -26.257812 9.21875 -26.21875 C 7.824219 -26.21875 7.25 -26.953125 6.144531 -26.953125 C 3.644531 -26.914062 0.613281 -23.144531 0.613281 -19.992188 C 0.613281 -15.199219 7.496094 -8.929688 7.496094 -4.507812 C 7.496094 -3.15625 6.839844 -2.457031 5.160156 -2.292969 C 2.128906 -2.335938 1.800781 -4.507812 0.859375 -7.128906 L 0.613281 -7.003906 C 1.269531 -4.875 1.433594 -1.476562 0.984375 0.246094 L 1.1875 0.328125 C 1.1875 0.328125 1.515625 -0.246094 2.375 -0.246094 C 3.234375 -0.203125 3.933594 0.367188 5.078125 0.410156 C 7.785156 0.410156 10.816406 -2.910156 10.816406 -5.941406 C 10.816406 -10.527344 3.933594 -16.917969 3.933594 -21.671875 C 3.933594 -23.308594 4.792969 -24.292969 6.1875 -24.292969 C 8.972656 -24.332031 8.316406 -20.359375 8.398438 -18.269531 Z M 8.644531 -18.269531 "/></g></g></g><g fill="#ffffff" fill-opacity="1"><g transform="translate(269.928984, 202.836183)"><g><path d="M 7.128906 -26.953125 C 3.5625 -26.953125 1.230469 -21.507812 1.230469 -13.273438 C 1.230469 -4.382812 3.605469 0.367188 7.128906 0.367188 C 10.691406 0.367188 12.984375 -4.425781 12.984375 -13.273438 C 12.984375 -21.546875 10.691406 -26.953125 7.128906 -26.953125 Z M 9.464844 -4.996094 C 9.464844 -3.480469 8.398438 -2.210938 7.128906 -2.210938 C 5.859375 -2.210938 4.792969 -3.480469 4.792969 -4.996094 L 4.792969 -21.546875 C 4.792969 -23.0625 5.859375 -24.292969 7.128906 -24.292969 C 8.398438 -24.292969 9.464844 -23.0625 9.464844 -21.546875 Z M 9.464844 -4.996094 "/></g></g></g><g fill="#ffffff" fill-opacity="1"><g transform="translate(287.786991, 202.836183)"><g><path d="M 9.011719 -11.183594 C 10.691406 -12.207031 12.207031 -14.746094 12.207031 -18.640625 C 12.207031 -23.433594 9.464844 -26.546875 7.375 -26.546875 L 1.84375 -26.546875 L 1.84375 -26.339844 C 1.84375 -26.339844 2.375 -26.300781 2.375 -25.152344 L 2.375 -1.394531 C 2.375 -0.285156 1.84375 -0.203125 1.84375 -0.203125 L 1.84375 0 L 6.144531 0 L 6.144531 -0.203125 C 6.144531 -0.203125 5.613281 -0.285156 5.613281 -1.433594 L 5.613281 -10.691406 L 6.511719 -10.691406 C 8.398438 0.820312 10.324219 0 13.640625 0 L 13.640625 -0.203125 C 11.839844 -0.203125 10.691406 -5.570312 10.117188 -10.445312 Z M 7.785156 -23.964844 C 8.273438 -23.964844 8.644531 -23.351562 8.644531 -22.613281 L 8.644531 -14.625 C 8.644531 -13.886719 8.273438 -13.273438 7.785156 -13.273438 L 5.613281 -13.273438 L 5.613281 -23.964844 Z M 7.785156 -23.964844 "/></g></g></g><g clip-path="url(#id1)"><path fill="#77838d" d="M 182.136719 190.71875 L 182.136719 188.042969 L 167.140625 188.042969 L 167.140625 196.371094 L 182.136719 196.371094 L 182.136719 190.71875 M 167.140625 196.371094 L 182.136719 205.347656 L 182.136719 196.371094 L 167.140625 196.371094 M 167.140625 179.070312 L 182.136719 179.070312 L 182.136719 188.042969 L 167.140625 188.042969 L 167.140625 179.070312 " fill-opacity="1" fill-rule="nonzero"/></g><g clip-path="url(#id2)"><path fill="#9aa7b2" d="M 182.136719 188.042969 L 182.136719 196.371094 L 197.136719 196.371094 L 197.136719 188.042969 L 182.136719 188.042969 M 182.136719 179.070312 L 197.136719 179.070312 L 197.136719 188.042969 L 182.136719 188.042969 L 182.136719 179.070312 M 182.136719 205.347656 L 197.136719 196.371094 L 182.136719 196.371094 L 182.136719 205.347656 " fill-opacity="1" fill-rule="nonzero"/></g><g clip-path="url(#id3)"><path fill="#c7d0d8" d="M 182.136719 188.042969 L 167.140625 179.070312 L 182.136719 170.097656 L 197.136719 179.070312 L 182.136719 188.042969 " fill-opacity="1" fill-rule="nonzero"/></g><g fill="#ffffff" fill-opacity="1"><g transform="translate(6.950418, 241.045019)"><g><path d="M 4.753906 -7.144531 C 5.273438 -7.6875 5.671875 -8.496094 5.671875 -9.449219 C 5.671875 -11.503906 3.996094 -12.601562 3.167969 -12.601562 L 0.898438 -12.601562 L 0.898438 -12.511719 C 0.898438 -12.511719 1.171875 -12.472656 1.171875 -11.933594 L 1.171875 -0.664062 C 1.171875 -0.125 0.898438 -0.0898438 0.898438 -0.0898438 L 0.898438 0 L 3.816406 0 C 4.804688 0 6.101562 -1.332031 6.101562 -3.761719 C 6.101562 -5.363281 5.472656 -6.550781 4.753906 -7.144531 Z M 4.410156 -1.871094 C 4.410156 -1.511719 4.230469 -1.242188 3.996094 -1.242188 L 2.699219 -1.242188 L 2.699219 -6.300781 L 3.996094 -6.300781 C 4.230469 -6.300781 4.410156 -6.011719 4.410156 -5.671875 Z M 3.4375 -11.359375 C 3.761719 -11.359375 3.976562 -11.140625 3.976562 -10.890625 L 3.976562 -8.171875 C 3.976562 -7.792969 3.871094 -7.542969 3.382812 -7.542969 L 2.699219 -7.523438 L 2.699219 -11.359375 Z M 3.4375 -11.359375 "/></g></g></g><g fill="#ffffff" fill-opacity="1"><g transform="translate(15.1044, 241.045019)"><g><path d="M 3.90625 -11.574219 C 3.90625 -11.574219 4.140625 -11.539062 4.140625 -11.035156 L 4.140625 -2.179688 C 4.140625 -1.476562 3.761719 -0.972656 3.222656 -0.972656 C 2.683594 -0.972656 2.304688 -1.476562 2.304688 -2.179688 L 2.304688 -11.035156 C 2.304688 -11.539062 2.539062 -11.574219 2.539062 -11.574219 L 2.539062 -11.664062 L 0.628906 -11.664062 L 0.628906 -11.574219 C 0.628906 -11.574219 0.847656 -11.539062 0.863281 -11.125 L 0.863281 -2.988281 C 0.863281 -1.222656 2.035156 0.179688 3.148438 0.179688 C 4.246094 0.179688 5.308594 -1.1875 5.308594 -2.539062 L 5.308594 -11.089844 C 5.328125 -11.539062 5.542969 -11.574219 5.542969 -11.574219 L 5.542969 -11.664062 L 3.90625 -11.664062 Z M 3.90625 -11.574219 "/></g></g></g><g fill="#ffffff" fill-opacity="1"><g transform="translate(22.790376, 241.045019)"><g><path d="M 0.628906 -11.574219 C 0.628906 -11.574219 0.863281 -11.554688 0.863281 -11.050781 L 0.863281 -0.628906 C 0.863281 -0.125 0.628906 -0.0898438 0.628906 -0.0898438 L 0.628906 0 L 2.519531 0 L 2.519531 -0.0898438 C 2.519531 -0.0898438 2.285156 -0.125 2.285156 -0.613281 L 2.285156 -11.050781 C 2.285156 -11.554688 2.519531 -11.574219 2.519531 -11.574219 L 2.519531 -11.664062 L 0.628906 -11.664062 Z M 0.628906 -11.574219 "/></g></g></g><g fill="#ffffff" fill-opacity="1"><g transform="translate(27.542362, 241.045019)"><g><path d="M 4.878906 -3.113281 C 4.570312 -2.339844 4.085938 -1.007812 3.1875 -1.007812 L 2.464844 -1.007812 L 2.464844 -11.050781 C 2.464844 -11.554688 2.71875 -11.574219 2.71875 -11.574219 L 2.71875 -11.664062 L 0.808594 -11.664062 L 0.808594 -11.574219 C 0.808594 -11.574219 1.042969 -11.554688 1.042969 -11.050781 L 1.042969 -0.613281 C 1.042969 -0.125 0.808594 -0.0898438 0.808594 -0.0898438 L 0.808594 0 L 4.714844 0 C 4.554688 -0.703125 4.660156 -2.070312 4.96875 -3.042969 Z M 4.878906 -3.113281 "/></g></g></g><g fill="#ffffff" fill-opacity="1"><g transform="translate(34.202341, 241.045019)"><g><path d="M 0.808594 -11.664062 L 0.808594 -11.574219 C 0.808594 -11.574219 1.042969 -11.554688 1.0625 -11.050781 L 1.0625 -0.613281 C 1.042969 -0.125 0.808594 -0.0898438 0.808594 -0.0898438 L 0.808594 0 L 3.203125 0 C 4.734375 0 5.722656 -2.050781 5.722656 -5.832031 C 5.722656 -9.378906 4.734375 -11.664062 3.203125 -11.664062 Z M 4.15625 -2.320312 C 4.15625 -1.675781 3.726562 -1.152344 3.1875 -1.152344 L 2.484375 -1.152344 L 2.484375 -10.511719 L 3.1875 -10.511719 C 3.726562 -10.511719 4.15625 -9.988281 4.15625 -9.34375 Z M 4.15625 -2.320312 "/></g></g></g><g fill="#ffffff" fill-opacity="1"><g transform="translate(42.068322, 241.045019)"><g><path d="M 0.628906 -11.574219 C 0.628906 -11.574219 0.863281 -11.554688 0.863281 -11.050781 L 0.863281 -0.628906 C 0.863281 -0.125 0.628906 -0.0898438 0.628906 -0.0898438 L 0.628906 0 L 2.519531 0 L 2.519531 -0.0898438 C 2.519531 -0.0898438 2.285156 -0.125 2.285156 -0.613281 L 2.285156 -11.050781 C 2.285156 -11.554688 2.519531 -11.574219 2.519531 -11.574219 L 2.519531 -11.664062 L 0.628906 -11.664062 Z M 0.628906 -11.574219 "/></g></g></g><g fill="#ffffff" fill-opacity="1"><g transform="translate(46.82031, 241.045019)"><g><path d="M 3.90625 -11.574219 C 3.90625 -11.574219 4.140625 -11.554688 4.140625 -11.050781 L 4.140625 -5.039062 L 2.359375 -11.664062 L 0.628906 -11.664062 L 0.628906 -11.574219 C 0.628906 -11.574219 0.863281 -11.554688 0.863281 -11.050781 L 0.863281 -0.613281 C 0.863281 -0.125 0.628906 -0.0898438 0.628906 -0.0898438 L 0.628906 0 L 2.285156 0 L 2.285156 -0.0898438 C 2.285156 -0.0898438 2.050781 -0.125 2.050781 -0.628906 L 2.050781 -7.597656 L 4.140625 0 L 5.328125 0 L 5.328125 -11.050781 C 5.328125 -11.554688 5.5625 -11.574219 5.5625 -11.574219 L 5.5625 -11.664062 L 3.90625 -11.664062 Z M 3.90625 -11.574219 "/></g></g></g><g fill="#ffffff" fill-opacity="1"><g transform="translate(54.614296, 241.045019)"><g><path d="M 3.347656 -6.496094 C 3.511719 -5.796875 3.402344 -4.429688 3.078125 -3.457031 L 3.1875 -3.382812 C 3.421875 -3.996094 3.78125 -4.949219 4.355469 -5.328125 L 4.355469 -2.160156 C 4.355469 -1.222656 3.960938 -0.972656 3.257812 -0.972656 C 2.484375 -0.972656 2.105469 -1.421875 2.105469 -2.195312 L 2.105469 -9.46875 C 2.105469 -10.171875 2.59375 -10.675781 3.257812 -10.675781 C 4.480469 -10.675781 4.519531 -8.929688 4.535156 -8.011719 L 4.644531 -8.011719 C 4.660156 -8.964844 5.292969 -11.105469 5.722656 -11.789062 L 5.652344 -11.84375 C 5.488281 -11.609375 5.257812 -11.503906 4.914062 -11.503906 C 4.320312 -11.503906 3.742188 -11.84375 3.167969 -11.84375 C 1.566406 -11.84375 0.539062 -9.433594 0.539062 -5.707031 C 0.539062 -2.050781 1.511719 0.160156 3.132812 0.160156 C 3.925781 0.160156 4.519531 -0.449219 4.859375 -1.097656 L 5.671875 0 L 5.777344 0 L 5.777344 -6.496094 Z M 3.347656 -6.496094 "/></g></g></g><g fill="#ffffff" fill-opacity="1"><g transform="translate(62.624279, 241.045019)"><g/></g></g><g fill="#ffffff" fill-opacity="1"><g transform="translate(68.078269, 241.045019)"><g><path d="M 5.257812 -12.816406 C 5.074219 -12.5625 4.84375 -12.457031 4.464844 -12.457031 C 3.816406 -12.4375 3.546875 -12.796875 3.023438 -12.78125 C 1.835938 -12.78125 0.394531 -10.980469 0.394531 -9.484375 C 0.394531 -7.21875 3.671875 -4.230469 3.671875 -2.140625 C 3.671875 -1.492188 3.347656 -1.171875 2.554688 -1.097656 C 1.242188 -1.097656 0.953125 -1.925781 0.574219 -3.023438 C 0.648438 -2.933594 0.757812 -2.914062 0.917969 -2.914062 C 1.242188 -2.914062 1.351562 -3.238281 1.351562 -3.421875 C 1.351562 -3.617188 1.242188 -3.90625 0.847656 -3.90625 C 0.449219 -3.90625 0.359375 -3.527344 0.359375 -3.367188 C 0.359375 -2.878906 0.71875 -2.339844 0.71875 -0.703125 C 0.71875 -0.199219 0.574219 0.109375 0.574219 0.109375 L 0.664062 0.144531 C 0.664062 0.144531 0.808594 -0.125 1.222656 -0.125 C 1.65625 -0.109375 1.960938 0.179688 2.519531 0.179688 C 3.796875 0.199219 5.238281 -1.386719 5.238281 -2.824219 C 5.238281 -4.984375 1.980469 -8.046875 1.980469 -10.277344 C 1.980469 -11.070312 2.375 -11.539062 3.023438 -11.539062 C 4.050781 -11.554688 4.085938 -10.421875 4.085938 -9.449219 C 4.085938 -9.179688 4.210938 -8.675781 4.570312 -8.675781 C 4.914062 -8.675781 5.074219 -8.964844 5.074219 -9.160156 C 5.074219 -9.359375 4.933594 -9.683594 4.609375 -9.683594 C 4.445312 -9.683594 4.339844 -9.613281 4.265625 -9.484375 C 4.464844 -10.636719 4.96875 -12.1875 5.347656 -12.761719 Z M 5.257812 -12.816406 "/></g></g></g><g fill="#ffffff" fill-opacity="1"><g transform="translate(75.296252, 241.045019)"><g><path d="M 3.132812 -11.84375 C 1.566406 -11.84375 0.539062 -9.449219 0.539062 -5.832031 C 0.539062 -1.925781 1.585938 0.160156 3.132812 0.160156 C 4.699219 0.160156 5.707031 -1.945312 5.707031 -5.832031 C 5.707031 -9.46875 4.699219 -11.84375 3.132812 -11.84375 Z M 4.15625 -2.195312 C 4.15625 -1.53125 3.691406 -0.972656 3.132812 -0.972656 C 2.574219 -0.972656 2.105469 -1.53125 2.105469 -2.195312 L 2.105469 -9.46875 C 2.105469 -10.132812 2.574219 -10.675781 3.132812 -10.675781 C 3.691406 -10.675781 4.15625 -10.132812 4.15625 -9.46875 Z M 4.15625 -2.195312 "/></g></g></g><g fill="#ffffff" fill-opacity="1"><g transform="translate(83.144232, 241.045019)"><g><path d="M 4.878906 -3.113281 C 4.570312 -2.339844 4.085938 -1.007812 3.1875 -1.007812 L 2.464844 -1.007812 L 2.464844 -11.050781 C 2.464844 -11.554688 2.71875 -11.574219 2.71875 -11.574219 L 2.71875 -11.664062 L 0.808594 -11.664062 L 0.808594 -11.574219 C 0.808594 -11.574219 1.042969 -11.554688 1.042969 -11.050781 L 1.042969 -0.613281 C 1.042969 -0.125 0.808594 -0.0898438 0.808594 -0.0898438 L 0.808594 0 L 4.714844 0 C 4.554688 -0.703125 4.660156 -2.070312 4.96875 -3.042969 Z M 4.878906 -3.113281 "/></g></g></g><g fill="#ffffff" fill-opacity="1"><g transform="translate(89.804212, 241.045019)"><g><path d="M 3.90625 -11.574219 C 3.90625 -11.574219 4.140625 -11.539062 4.140625 -11.035156 L 4.140625 -2.179688 C 4.140625 -1.476562 3.761719 -0.972656 3.222656 -0.972656 C 2.683594 -0.972656 2.304688 -1.476562 2.304688 -2.179688 L 2.304688 -11.035156 C 2.304688 -11.539062 2.539062 -11.574219 2.539062 -11.574219 L 2.539062 -11.664062 L 0.628906 -11.664062 L 0.628906 -11.574219 C 0.628906 -11.574219 0.847656 -11.539062 0.863281 -11.125 L 0.863281 -2.988281 C 0.863281 -1.222656 2.035156 0.179688 3.148438 0.179688 C 4.246094 0.179688 5.308594 -1.1875 5.308594 -2.539062 L 5.308594 -11.089844 C 5.328125 -11.539062 5.542969 -11.574219 5.542969 -11.574219 L 5.542969 -11.664062 L 3.90625 -11.664062 Z M 3.90625 -11.574219 "/></g></g></g><g fill="#ffffff" fill-opacity="1"><g transform="translate(97.49019, 241.045019)"><g><path d="M 0.34375 -11.664062 C 0.503906 -10.960938 0.394531 -9.59375 0.0898438 -8.621094 L 0.179688 -8.550781 C 0.484375 -9.34375 0.972656 -10.675781 1.871094 -10.675781 L 2.050781 -10.675781 L 2.050781 -0.613281 C 2.050781 -0.125 1.816406 -0.0898438 1.816406 -0.0898438 L 1.816406 0 L 3.707031 0 L 3.707031 -0.0898438 C 3.707031 -0.0898438 3.472656 -0.125 3.472656 -0.628906 L 3.472656 -10.675781 L 3.636719 -10.675781 C 4.554688 -10.675781 5.039062 -9.34375 5.328125 -8.550781 L 5.4375 -8.621094 C 5.128906 -9.59375 5.003906 -10.960938 5.183594 -11.664062 Z M 0.34375 -11.664062 "/></g></g></g><g fill="#ffffff" fill-opacity="1"><g transform="translate(104.618171, 241.045019)"><g><path d="M 0.628906 -11.574219 C 0.628906 -11.574219 0.863281 -11.554688 0.863281 -11.050781 L 0.863281 -0.628906 C 0.863281 -0.125 0.628906 -0.0898438 0.628906 -0.0898438 L 0.628906 0 L 2.519531 0 L 2.519531 -0.0898438 C 2.519531 -0.0898438 2.285156 -0.125 2.285156 -0.613281 L 2.285156 -11.050781 C 2.285156 -11.554688 2.519531 -11.574219 2.519531 -11.574219 L 2.519531 -11.664062 L 0.628906 -11.664062 Z M 0.628906 -11.574219 "/></g></g></g><g fill="#ffffff" fill-opacity="1"><g transform="translate(109.370158, 241.045019)"><g><path d="M 3.132812 -11.84375 C 1.566406 -11.84375 0.539062 -9.449219 0.539062 -5.832031 C 0.539062 -1.925781 1.585938 0.160156 3.132812 0.160156 C 4.699219 0.160156 5.707031 -1.945312 5.707031 -5.832031 C 5.707031 -9.46875 4.699219 -11.84375 3.132812 -11.84375 Z M 4.15625 -2.195312 C 4.15625 -1.53125 3.691406 -0.972656 3.132812 -0.972656 C 2.574219 -0.972656 2.105469 -1.53125 2.105469 -2.195312 L 2.105469 -9.46875 C 2.105469 -10.132812 2.574219 -10.675781 3.132812 -10.675781 C 3.691406 -10.675781 4.15625 -10.132812 4.15625 -9.46875 Z M 4.15625 -2.195312 "/></g></g></g><g fill="#ffffff" fill-opacity="1"><g transform="translate(117.218138, 241.045019)"><g><path d="M 3.90625 -11.574219 C 3.90625 -11.574219 4.140625 -11.554688 4.140625 -11.050781 L 4.140625 -5.039062 L 2.359375 -11.664062 L 0.628906 -11.664062 L 0.628906 -11.574219 C 0.628906 -11.574219 0.863281 -11.554688 0.863281 -11.050781 L 0.863281 -0.613281 C 0.863281 -0.125 0.628906 -0.0898438 0.628906 -0.0898438 L 0.628906 0 L 2.285156 0 L 2.285156 -0.0898438 C 2.285156 -0.0898438 2.050781 -0.125 2.050781 -0.628906 L 2.050781 -7.597656 L 4.140625 0 L 5.328125 0 L 5.328125 -11.050781 C 5.328125 -11.554688 5.5625 -11.574219 5.5625 -11.574219 L 5.5625 -11.664062 L 3.90625 -11.664062 Z M 3.90625 -11.574219 "/></g></g></g><g fill="#ffffff" fill-opacity="1"><g transform="translate(125.012125, 241.045019)"><g><path d="M 3.796875 -8.027344 C 3.816406 -8.980469 4.410156 -11.140625 4.84375 -11.808594 L 4.769531 -11.863281 C 4.609375 -11.628906 4.375 -11.539062 4.050781 -11.519531 C 3.4375 -11.519531 3.1875 -11.84375 2.699219 -11.84375 C 1.601562 -11.824219 0.269531 -10.171875 0.269531 -8.785156 C 0.269531 -6.679688 3.292969 -3.925781 3.292969 -1.980469 C 3.292969 -1.386719 3.007812 -1.078125 2.269531 -1.007812 C 0.9375 -1.027344 0.792969 -1.980469 0.378906 -3.132812 L 0.269531 -3.078125 C 0.558594 -2.140625 0.628906 -0.648438 0.433594 0.109375 L 0.523438 0.144531 C 0.523438 0.144531 0.664062 -0.109375 1.042969 -0.109375 C 1.421875 -0.0898438 1.726562 0.160156 2.230469 0.179688 C 3.421875 0.179688 4.753906 -1.277344 4.753906 -2.609375 C 4.753906 -4.625 1.726562 -7.433594 1.726562 -9.523438 C 1.726562 -10.242188 2.105469 -10.675781 2.71875 -10.675781 C 3.941406 -10.691406 3.652344 -8.945312 3.691406 -8.027344 Z M 3.796875 -8.027344 "/></g></g></g><g fill="#ffffff" fill-opacity="1"><g transform="translate(131.636113, 241.045019)"><g/></g></g><g fill="#ffffff" fill-opacity="1"><g transform="translate(137.090104, 241.045019)"><g><path d="M 0.808594 -11.664062 L 0.808594 -11.574219 C 0.808594 -11.574219 1.042969 -11.554688 1.042969 -11.050781 L 1.042969 -0.613281 C 1.042969 -0.125 0.808594 -0.0898438 0.808594 -0.0898438 L 0.808594 0 L 2.699219 0 L 2.699219 -0.0898438 C 2.699219 -0.0898438 2.464844 -0.125 2.464844 -0.628906 L 2.464844 -6.300781 C 3.203125 -6.265625 3.582031 -5.941406 3.90625 -5.074219 L 4.015625 -5.128906 C 3.816406 -5.742188 3.816406 -6.316406 3.816406 -6.75 C 3.816406 -7.289062 3.816406 -7.847656 4.015625 -8.460938 L 3.90625 -8.53125 C 3.582031 -7.667969 3.203125 -7.34375 2.464844 -7.308594 L 2.464844 -10.675781 L 3.148438 -10.675781 C 4.050781 -10.675781 4.535156 -9.34375 4.84375 -8.550781 L 4.933594 -8.621094 C 4.625 -9.59375 4.519531 -10.960938 4.679688 -11.664062 Z M 0.808594 -11.664062 "/></g></g></g><g fill="#ffffff" fill-opacity="1"><g transform="translate(143.894085, 241.045019)"><g><path d="M 3.960938 -4.914062 C 4.699219 -5.363281 5.363281 -6.480469 5.363281 -8.191406 C 5.363281 -10.296875 4.15625 -11.664062 3.238281 -11.664062 L 0.808594 -11.664062 L 0.808594 -11.574219 C 0.808594 -11.574219 1.042969 -11.554688 1.042969 -11.050781 L 1.042969 -0.613281 C 1.042969 -0.125 0.808594 -0.0898438 0.808594 -0.0898438 L 0.808594 0 L 2.699219 0 L 2.699219 -0.0898438 C 2.699219 -0.0898438 2.464844 -0.125 2.464844 -0.628906 L 2.464844 -4.699219 L 2.863281 -4.699219 C 3.691406 0.359375 4.535156 0 5.992188 0 L 5.992188 -0.0898438 C 5.203125 -0.0898438 4.699219 -2.449219 4.445312 -4.589844 Z M 3.421875 -10.53125 C 3.636719 -10.53125 3.796875 -10.261719 3.796875 -9.9375 L 3.796875 -6.425781 C 3.796875 -6.101562 3.636719 -5.832031 3.421875 -5.832031 L 2.464844 -5.832031 L 2.464844 -10.53125 Z M 3.421875 -10.53125 "/></g></g></g><g fill="#ffffff" fill-opacity="1"><g transform="translate(151.490066, 241.045019)"><g><path d="M 3.132812 -11.84375 C 1.566406 -11.84375 0.539062 -9.449219 0.539062 -5.832031 C 0.539062 -1.925781 1.585938 0.160156 3.132812 0.160156 C 4.699219 0.160156 5.707031 -1.945312 5.707031 -5.832031 C 5.707031 -9.46875 4.699219 -11.84375 3.132812 -11.84375 Z M 4.15625 -2.195312 C 4.15625 -1.53125 3.691406 -0.972656 3.132812 -0.972656 C 2.574219 -0.972656 2.105469 -1.53125 2.105469 -2.195312 L 2.105469 -9.46875 C 2.105469 -10.132812 2.574219 -10.675781 3.132812 -10.675781 C 3.691406 -10.675781 4.15625 -10.132812 4.15625 -9.46875 Z M 4.15625 -2.195312 "/></g></g></g><g fill="#ffffff" fill-opacity="1"><g transform="translate(159.338046, 241.045019)"><g><path d="M 6.75 -11.105469 C 6.695312 -11.554688 6.910156 -11.574219 6.910156 -11.574219 L 6.910156 -11.664062 L 4.933594 -11.664062 L 4.914062 -11.574219 C 4.914062 -11.574219 5.148438 -11.554688 5.058594 -11.050781 L 4.320312 -7.054688 L 3.5625 -11.105469 C 3.511719 -11.554688 3.707031 -11.574219 3.707031 -11.574219 L 3.707031 -11.664062 L 1.710938 -11.664062 L 1.710938 -11.574219 C 1.710938 -11.574219 1.925781 -11.554688 1.890625 -11.140625 L 0.414062 -0.628906 C 0.34375 -0.125 0.0898438 -0.0898438 0.0898438 -0.0898438 L 0.0898438 0 L 1.746094 0 L 1.746094 -0.0898438 C 1.746094 -0.0898438 1.53125 -0.125 1.585938 -0.613281 L 2.644531 -8.425781 L 4.105469 -0.847656 L 4.210938 -0.847656 L 5.6875 -8.425781 L 6.730469 -0.628906 C 6.804688 -0.125 6.570312 -0.0898438 6.570312 -0.0898438 L 6.570312 0 L 8.550781 0 L 8.550781 -0.0898438 C 8.550781 -0.0898438 8.296875 -0.125 8.226562 -0.628906 Z M 6.75 -11.105469 "/></g></g></g><g fill="#ffffff" fill-opacity="1"><g transform="translate(169.580027, 241.045019)"><g/></g></g><g fill="#ffffff" fill-opacity="1"><g transform="translate(175.034018, 241.045019)"><g><path d="M 6.226562 -0.808594 C 5.941406 -0.808594 5.742188 -0.59375 5.742188 -0.324219 C 5.742188 -0.125 5.851562 -0.0195312 5.941406 0.0351562 C 5.148438 -0.269531 5.074219 -2.878906 4.824219 -4.96875 L 4.320312 -5.328125 C 5.09375 -5.8125 5.832031 -7.019531 5.832031 -8.855469 C 5.832031 -11.125 4.519531 -12.617188 3.546875 -12.617188 L 0.898438 -12.617188 L 0.898438 -12.527344 C 0.898438 -12.527344 1.152344 -12.492188 1.152344 -11.953125 L 1.152344 -0.683594 C 1.152344 -0.144531 0.898438 -0.109375 0.898438 -0.109375 L 0.898438 -0.0195312 L 2.953125 -0.0195312 L 2.953125 -0.109375 C 2.953125 -0.109375 2.699219 -0.144531 2.699219 -0.683594 L 2.699219 -5.09375 L 3.113281 -5.09375 C 3.796875 -0.917969 4.355469 0.179688 6.046875 0.179688 C 6.535156 0.179688 6.75 -0.0546875 6.75 -0.324219 C 6.75 -0.59375 6.515625 -0.808594 6.226562 -0.808594 Z M 3.742188 -11.394531 L 3.742188 -11.375 C 3.960938 -11.375 4.140625 -11.105469 4.140625 -10.746094 L 4.140625 -6.949219 C 4.140625 -6.605469 3.960938 -6.316406 3.742188 -6.316406 L 2.699219 -6.316406 L 2.699219 -11.394531 Z M 3.742188 -11.394531 "/></g></g></g><g fill="#ffffff" fill-opacity="1"><g transform="translate(183.385995, 241.045019)"><g><path d="M 4.804688 -3.113281 C 4.519531 -2.339844 4.015625 -1.007812 3.113281 -1.007812 L 2.464844 -1.007812 L 2.464844 -6.371094 C 3.203125 -6.335938 3.582031 -6.011719 3.90625 -5.164062 L 4.015625 -5.21875 C 3.816406 -5.832031 3.816406 -6.40625 3.816406 -6.820312 C 3.816406 -7.363281 3.816406 -7.9375 4.015625 -8.550781 L 3.90625 -8.605469 C 3.582031 -7.738281 3.203125 -7.414062 2.464844 -7.398438 L 2.464844 -10.675781 L 3.078125 -10.675781 C 3.996094 -10.675781 4.480469 -9.34375 4.769531 -8.550781 L 4.878906 -8.621094 C 4.570312 -9.59375 4.445312 -10.960938 4.625 -11.664062 L 0.808594 -11.664062 L 0.808594 -11.574219 C 0.808594 -11.574219 1.042969 -11.554688 1.042969 -11.050781 L 1.042969 -0.613281 C 1.042969 -0.125 0.808594 -0.0898438 0.808594 -0.0898438 L 0.808594 0 L 4.644531 0 C 4.480469 -0.703125 4.589844 -2.070312 4.914062 -3.042969 Z M 4.804688 -3.113281 "/></g></g></g><g fill="#ffffff" fill-opacity="1"><g transform="translate(190.261983, 241.045019)"><g><path d="M 3.726562 -11.050781 C 3.652344 -11.554688 3.886719 -11.574219 3.886719 -11.574219 L 3.886719 -11.664062 L 1.890625 -11.664062 L 1.890625 -11.574219 C 1.890625 -11.574219 2.125 -11.554688 2.035156 -11.050781 L 0.433594 -0.613281 C 0.34375 -0.125 0.0898438 -0.0898438 0.0898438 -0.0898438 L 0.0898438 0 L 1.746094 0 L 1.746094 -0.0898438 C 1.746094 -0.0898438 1.511719 -0.125 1.601562 -0.628906 L 1.890625 -2.449219 L 3.5625 -2.449219 L 3.851562 -0.558594 C 3.925781 -0.125 3.707031 -0.0898438 3.707031 -0.0898438 L 3.707031 0 L 5.671875 0 L 5.671875 -0.0898438 C 5.671875 -0.0898438 5.4375 -0.125 5.347656 -0.628906 Z M 2.71875 -8.351562 L 3.421875 -3.457031 L 2.035156 -3.457031 Z M 2.71875 -8.351562 "/></g></g></g><g fill="#ffffff" fill-opacity="1"><g transform="translate(197.623967, 241.045019)"><g><path d="M 4.878906 -3.113281 C 4.570312 -2.339844 4.085938 -1.007812 3.1875 -1.007812 L 2.464844 -1.007812 L 2.464844 -11.050781 C 2.464844 -11.554688 2.71875 -11.574219 2.71875 -11.574219 L 2.71875 -11.664062 L 0.808594 -11.664062 L 0.808594 -11.574219 C 0.808594 -11.574219 1.042969 -11.554688 1.042969 -11.050781 L 1.042969 -0.613281 C 1.042969 -0.125 0.808594 -0.0898438 0.808594 -0.0898438 L 0.808594 0 L 4.714844 0 C 4.554688 -0.703125 4.660156 -2.070312 4.96875 -3.042969 Z M 4.878906 -3.113281 "/></g></g></g><g fill="#ffffff" fill-opacity="1"><g transform="translate(204.283947, 241.045019)"><g/></g></g><g fill="#ffffff" fill-opacity="1"><g transform="translate(209.737926, 241.045019)"><g><path d="M 5.257812 -12.816406 C 5.074219 -12.5625 4.84375 -12.457031 4.464844 -12.457031 C 3.816406 -12.4375 3.546875 -12.796875 3.023438 -12.78125 C 1.835938 -12.78125 0.394531 -10.980469 0.394531 -9.484375 C 0.394531 -7.21875 3.671875 -4.230469 3.671875 -2.140625 C 3.671875 -1.492188 3.347656 -1.171875 2.554688 -1.097656 C 1.242188 -1.097656 0.953125 -1.925781 0.574219 -3.023438 C 0.648438 -2.933594 0.757812 -2.914062 0.917969 -2.914062 C 1.242188 -2.914062 1.351562 -3.238281 1.351562 -3.421875 C 1.351562 -3.617188 1.242188 -3.90625 0.847656 -3.90625 C 0.449219 -3.90625 0.359375 -3.527344 0.359375 -3.367188 C 0.359375 -2.878906 0.71875 -2.339844 0.71875 -0.703125 C 0.71875 -0.199219 0.574219 0.109375 0.574219 0.109375 L 0.664062 0.144531 C 0.664062 0.144531 0.808594 -0.125 1.222656 -0.125 C 1.65625 -0.109375 1.960938 0.179688 2.519531 0.179688 C 3.796875 0.199219 5.238281 -1.386719 5.238281 -2.824219 C 5.238281 -4.984375 1.980469 -8.046875 1.980469 -10.277344 C 1.980469 -11.070312 2.375 -11.539062 3.023438 -11.539062 C 4.050781 -11.554688 4.085938 -10.421875 4.085938 -9.449219 C 4.085938 -9.179688 4.210938 -8.675781 4.570312 -8.675781 C 4.914062 -8.675781 5.074219 -8.964844 5.074219 -9.160156 C 5.074219 -9.359375 4.933594 -9.683594 4.609375 -9.683594 C 4.445312 -9.683594 4.339844 -9.613281 4.265625 -9.484375 C 4.464844 -10.636719 4.96875 -12.1875 5.347656 -12.761719 Z M 5.257812 -12.816406 "/></g></g></g><g fill="#ffffff" fill-opacity="1"><g transform="translate(216.955898, 241.045019)"><g><path d="M 0.34375 -11.664062 C 0.503906 -10.960938 0.394531 -9.59375 0.0898438 -8.621094 L 0.179688 -8.550781 C 0.484375 -9.34375 0.972656 -10.675781 1.871094 -10.675781 L 2.050781 -10.675781 L 2.050781 -0.613281 C 2.050781 -0.125 1.816406 -0.0898438 1.816406 -0.0898438 L 1.816406 0 L 3.707031 0 L 3.707031 -0.0898438 C 3.707031 -0.0898438 3.472656 -0.125 3.472656 -0.628906 L 3.472656 -10.675781 L 3.636719 -10.675781 C 4.554688 -10.675781 5.039062 -9.34375 5.328125 -8.550781 L 5.4375 -8.621094 C 5.128906 -9.59375 5.003906 -10.960938 5.183594 -11.664062 Z M 0.34375 -11.664062 "/></g></g></g><g fill="#ffffff" fill-opacity="1"><g transform="translate(224.083873, 241.045019)"><g><path d="M 3.132812 -11.84375 C 1.566406 -11.84375 0.539062 -9.449219 0.539062 -5.832031 C 0.539062 -1.925781 1.585938 0.160156 3.132812 0.160156 C 4.699219 0.160156 5.707031 -1.945312 5.707031 -5.832031 C 5.707031 -9.46875 4.699219 -11.84375 3.132812 -11.84375 Z M 4.15625 -2.195312 C 4.15625 -1.53125 3.691406 -0.972656 3.132812 -0.972656 C 2.574219 -0.972656 2.105469 -1.53125 2.105469 -2.195312 L 2.105469 -9.46875 C 2.105469 -10.132812 2.574219 -10.675781 3.132812 -10.675781 C 3.691406 -10.675781 4.15625 -10.132812 4.15625 -9.46875 Z M 4.15625 -2.195312 "/></g></g></g><g fill="#ffffff" fill-opacity="1"><g transform="translate(231.931841, 241.045019)"><g><path d="M 3.960938 -4.914062 C 4.699219 -5.363281 5.363281 -6.480469 5.363281 -8.191406 C 5.363281 -10.296875 4.15625 -11.664062 3.238281 -11.664062 L 0.808594 -11.664062 L 0.808594 -11.574219 C 0.808594 -11.574219 1.042969 -11.554688 1.042969 -11.050781 L 1.042969 -0.613281 C 1.042969 -0.125 0.808594 -0.0898438 0.808594 -0.0898438 L 0.808594 0 L 2.699219 0 L 2.699219 -0.0898438 C 2.699219 -0.0898438 2.464844 -0.125 2.464844 -0.628906 L 2.464844 -4.699219 L 2.863281 -4.699219 C 3.691406 0.359375 4.535156 0 5.992188 0 L 5.992188 -0.0898438 C 5.203125 -0.0898438 4.699219 -2.449219 4.445312 -4.589844 Z M 3.421875 -10.53125 C 3.636719 -10.53125 3.796875 -10.261719 3.796875 -9.9375 L 3.796875 -6.425781 C 3.796875 -6.101562 3.636719 -5.832031 3.421875 -5.832031 L 2.464844 -5.832031 L 2.464844 -10.53125 Z M 3.421875 -10.53125 "/></g></g></g><g fill="#ffffff" fill-opacity="1"><g transform="translate(239.527811, 241.045019)"><g><path d="M 0.628906 -11.574219 C 0.628906 -11.574219 0.863281 -11.554688 0.863281 -11.050781 L 0.863281 -0.628906 C 0.863281 -0.125 0.628906 -0.0898438 0.628906 -0.0898438 L 0.628906 0 L 2.519531 0 L 2.519531 -0.0898438 C 2.519531 -0.0898438 2.285156 -0.125 2.285156 -0.613281 L 2.285156 -11.050781 C 2.285156 -11.554688 2.519531 -11.574219 2.519531 -11.574219 L 2.519531 -11.664062 L 0.628906 -11.664062 Z M 0.628906 -11.574219 "/></g></g></g><g fill="#ffffff" fill-opacity="1"><g transform="translate(244.279786, 241.045019)"><g><path d="M 4.804688 -3.113281 C 4.519531 -2.339844 4.015625 -1.007812 3.113281 -1.007812 L 2.464844 -1.007812 L 2.464844 -6.371094 C 3.203125 -6.335938 3.582031 -6.011719 3.90625 -5.164062 L 4.015625 -5.21875 C 3.816406 -5.832031 3.816406 -6.40625 3.816406 -6.820312 C 3.816406 -7.363281 3.816406 -7.9375 4.015625 -8.550781 L 3.90625 -8.605469 C 3.582031 -7.738281 3.203125 -7.414062 2.464844 -7.398438 L 2.464844 -10.675781 L 3.078125 -10.675781 C 3.996094 -10.675781 4.480469 -9.34375 4.769531 -8.550781 L 4.878906 -8.621094 C 4.570312 -9.59375 4.445312 -10.960938 4.625 -11.664062 L 0.808594 -11.664062 L 0.808594 -11.574219 C 0.808594 -11.574219 1.042969 -11.554688 1.042969 -11.050781 L 1.042969 -0.613281 C 1.042969 -0.125 0.808594 -0.0898438 0.808594 -0.0898438 L 0.808594 0 L 4.644531 0 C 4.480469 -0.703125 4.589844 -2.070312 4.914062 -3.042969 Z M 4.804688 -3.113281 "/></g></g></g><g fill="#ffffff" fill-opacity="1"><g transform="translate(251.155763, 241.045019)"><g><path d="M 3.796875 -8.027344 C 3.816406 -8.980469 4.410156 -11.140625 4.84375 -11.808594 L 4.769531 -11.863281 C 4.609375 -11.628906 4.375 -11.539062 4.050781 -11.519531 C 3.4375 -11.519531 3.1875 -11.84375 2.699219 -11.84375 C 1.601562 -11.824219 0.269531 -10.171875 0.269531 -8.785156 C 0.269531 -6.679688 3.292969 -3.925781 3.292969 -1.980469 C 3.292969 -1.386719 3.007812 -1.078125 2.269531 -1.007812 C 0.9375 -1.027344 0.792969 -1.980469 0.378906 -3.132812 L 0.269531 -3.078125 C 0.558594 -2.140625 0.628906 -0.648438 0.433594 0.109375 L 0.523438 0.144531 C 0.523438 0.144531 0.664062 -0.109375 1.042969 -0.109375 C 1.421875 -0.0898438 1.726562 0.160156 2.230469 0.179688 C 3.421875 0.179688 4.753906 -1.277344 4.753906 -2.609375 C 4.753906 -4.625 1.726562 -7.433594 1.726562 -9.523438 C 1.726562 -10.242188 2.105469 -10.675781 2.71875 -10.675781 C 3.941406 -10.691406 3.652344 -8.945312 3.691406 -8.027344 Z M 3.796875 -8.027344 "/></g></g></g><g fill="#ffffff" fill-opacity="1"><g transform="translate(257.77974, 241.045019)"><g/></g></g><g fill="#ffffff" fill-opacity="1"><g transform="translate(263.233719, 241.045019)"><g><path d="M 0.808594 -11.664062 L 0.808594 -11.574219 C 0.808594 -11.574219 1.042969 -11.554688 1.042969 -11.050781 L 1.042969 -0.613281 C 1.042969 -0.125 0.808594 -0.0898438 0.808594 -0.0898438 L 0.808594 0 L 2.699219 0 L 2.699219 -0.0898438 C 2.699219 -0.0898438 2.464844 -0.125 2.464844 -0.628906 L 2.464844 -6.300781 C 3.203125 -6.265625 3.582031 -5.941406 3.90625 -5.074219 L 4.015625 -5.128906 C 3.816406 -5.742188 3.816406 -6.316406 3.816406 -6.75 C 3.816406 -7.289062 3.816406 -7.847656 4.015625 -8.460938 L 3.90625 -8.53125 C 3.582031 -7.667969 3.203125 -7.34375 2.464844 -7.308594 L 2.464844 -10.675781 L 3.148438 -10.675781 C 4.050781 -10.675781 4.535156 -9.34375 4.84375 -8.550781 L 4.933594 -8.621094 C 4.625 -9.59375 4.519531 -10.960938 4.679688 -11.664062 Z M 0.808594 -11.664062 "/></g></g></g><g fill="#ffffff" fill-opacity="1"><g transform="translate(270.037689, 241.045019)"><g><path d="M 3.132812 -11.84375 C 1.566406 -11.84375 0.539062 -9.449219 0.539062 -5.832031 C 0.539062 -1.925781 1.585938 0.160156 3.132812 0.160156 C 4.699219 0.160156 5.707031 -1.945312 5.707031 -5.832031 C 5.707031 -9.46875 4.699219 -11.84375 3.132812 -11.84375 Z M 4.15625 -2.195312 C 4.15625 -1.53125 3.691406 -0.972656 3.132812 -0.972656 C 2.574219 -0.972656 2.105469 -1.53125 2.105469 -2.195312 L 2.105469 -9.46875 C 2.105469 -10.132812 2.574219 -10.675781 3.132812 -10.675781 C 3.691406 -10.675781 4.15625 -10.132812 4.15625 -9.46875 Z M 4.15625 -2.195312 "/></g></g></g><g fill="#ffffff" fill-opacity="1"><g transform="translate(277.885657, 241.045019)"><g><path d="M 3.960938 -4.914062 C 4.699219 -5.363281 5.363281 -6.480469 5.363281 -8.191406 C 5.363281 -10.296875 4.15625 -11.664062 3.238281 -11.664062 L 0.808594 -11.664062 L 0.808594 -11.574219 C 0.808594 -11.574219 1.042969 -11.554688 1.042969 -11.050781 L 1.042969 -0.613281 C 1.042969 -0.125 0.808594 -0.0898438 0.808594 -0.0898438 L 0.808594 0 L 2.699219 0 L 2.699219 -0.0898438 C 2.699219 -0.0898438 2.464844 -0.125 2.464844 -0.628906 L 2.464844 -4.699219 L 2.863281 -4.699219 C 3.691406 0.359375 4.535156 0 5.992188 0 L 5.992188 -0.0898438 C 5.203125 -0.0898438 4.699219 -2.449219 4.445312 -4.589844 Z M 3.421875 -10.53125 C 3.636719 -10.53125 3.796875 -10.261719 3.796875 -9.9375 L 3.796875 -6.425781 C 3.796875 -6.101562 3.636719 -5.832031 3.421875 -5.832031 L 2.464844 -5.832031 L 2.464844 -10.53125 Z M 3.421875 -10.53125 "/></g></g></g><g fill="#ffffff" fill-opacity="1"><g transform="translate(285.481627, 241.045019)"><g/></g></g><g fill="#ffffff" fill-opacity="1"><g transform="translate(290.935606, 241.045019)"><g><path d="M 6.226562 -0.808594 C 5.941406 -0.808594 5.742188 -0.59375 5.742188 -0.324219 C 5.742188 -0.125 5.851562 -0.0195312 5.941406 0.0351562 C 5.148438 -0.269531 5.074219 -2.878906 4.824219 -4.96875 L 4.320312 -5.328125 C 5.09375 -5.8125 5.832031 -7.019531 5.832031 -8.855469 C 5.832031 -11.125 4.519531 -12.617188 3.546875 -12.617188 L 0.898438 -12.617188 L 0.898438 -12.527344 C 0.898438 -12.527344 1.152344 -12.492188 1.152344 -11.953125 L 1.152344 -0.683594 C 1.152344 -0.144531 0.898438 -0.109375 0.898438 -0.109375 L 0.898438 -0.0195312 L 2.953125 -0.0195312 L 2.953125 -0.109375 C 2.953125 -0.109375 2.699219 -0.144531 2.699219 -0.683594 L 2.699219 -5.09375 L 3.113281 -5.09375 C 3.796875 -0.917969 4.355469 0.179688 6.046875 0.179688 C 6.535156 0.179688 6.75 -0.0546875 6.75 -0.324219 C 6.75 -0.59375 6.515625 -0.808594 6.226562 -0.808594 Z M 3.742188 -11.394531 L 3.742188 -11.375 C 3.960938 -11.375 4.140625 -11.105469 4.140625 -10.746094 L 4.140625 -6.949219 C 4.140625 -6.605469 3.960938 -6.316406 3.742188 -6.316406 L 2.699219 -6.316406 L 2.699219 -11.394531 Z M 3.742188 -11.394531 "/></g></g></g><g fill="#ffffff" fill-opacity="1"><g transform="translate(299.287572, 241.045019)"><g><path d="M 4.804688 -3.113281 C 4.519531 -2.339844 4.015625 -1.007812 3.113281 -1.007812 L 2.464844 -1.007812 L 2.464844 -6.371094 C 3.203125 -6.335938 3.582031 -6.011719 3.90625 -5.164062 L 4.015625 -5.21875 C 3.816406 -5.832031 3.816406 -6.40625 3.816406 -6.820312 C 3.816406 -7.363281 3.816406 -7.9375 4.015625 -8.550781 L 3.90625 -8.605469 C 3.582031 -7.738281 3.203125 -7.414062 2.464844 -7.398438 L 2.464844 -10.675781 L 3.078125 -10.675781 C 3.996094 -10.675781 4.480469 -9.34375 4.769531 -8.550781 L 4.878906 -8.621094 C 4.570312 -9.59375 4.445312 -10.960938 4.625 -11.664062 L 0.808594 -11.664062 L 0.808594 -11.574219 C 0.808594 -11.574219 1.042969 -11.554688 1.042969 -11.050781 L 1.042969 -0.613281 C 1.042969 -0.125 0.808594 -0.0898438 0.808594 -0.0898438 L 0.808594 0 L 4.644531 0 C 4.480469 -0.703125 4.589844 -2.070312 4.914062 -3.042969 Z M 4.804688 -3.113281 "/></g></g></g><g fill="#ffffff" fill-opacity="1"><g transform="translate(306.163549, 241.045019)"><g><path d="M 3.726562 -11.050781 C 3.652344 -11.554688 3.886719 -11.574219 3.886719 -11.574219 L 3.886719 -11.664062 L 1.890625 -11.664062 L 1.890625 -11.574219 C 1.890625 -11.574219 2.125 -11.554688 2.035156 -11.050781 L 0.433594 -0.613281 C 0.34375 -0.125 0.0898438 -0.0898438 0.0898438 -0.0898438 L 0.0898438 0 L 1.746094 0 L 1.746094 -0.0898438 C 1.746094 -0.0898438 1.511719 -0.125 1.601562 -0.628906 L 1.890625 -2.449219 L 3.5625 -2.449219 L 3.851562 -0.558594 C 3.925781 -0.125 3.707031 -0.0898438 3.707031 -0.0898438 L 3.707031 0 L 5.671875 0 L 5.671875 -0.0898438 C 5.671875 -0.0898438 5.4375 -0.125 5.347656 -0.628906 Z M 2.71875 -8.351562 L 3.421875 -3.457031 L 2.035156 -3.457031 Z M 2.71875 -8.351562 "/></g></g></g><g fill="#ffffff" fill-opacity="1"><g transform="translate(313.525532, 241.045019)"><g><path d="M 4.878906 -3.113281 C 4.570312 -2.339844 4.085938 -1.007812 3.1875 -1.007812 L 2.464844 -1.007812 L 2.464844 -11.050781 C 2.464844 -11.554688 2.71875 -11.574219 2.71875 -11.574219 L 2.71875 -11.664062 L 0.808594 -11.664062 L 0.808594 -11.574219 C 0.808594 -11.574219 1.042969 -11.554688 1.042969 -11.050781 L 1.042969 -0.613281 C 1.042969 -0.125 0.808594 -0.0898438 0.808594 -0.0898438 L 0.808594 0 L 4.714844 0 C 4.554688 -0.703125 4.660156 -2.070312 4.96875 -3.042969 Z M 4.878906 -3.113281 "/></g></g></g><g fill="#ffffff" fill-opacity="1"><g transform="translate(320.185513, 241.045019)"><g/></g></g><g fill="#ffffff" fill-opacity="1"><g transform="translate(325.639492, 241.045019)"><g><path d="M 0.898438 -12.601562 L 0.898438 -12.511719 C 0.898438 -12.511719 1.152344 -12.472656 1.152344 -11.933594 L 1.152344 -0.664062 C 1.152344 -0.125 0.898438 -0.0898438 0.898438 -0.0898438 L 0.898438 0 L 2.953125 0 L 2.953125 -0.0898438 C 2.953125 -0.0898438 2.699219 -0.125 2.699219 -0.664062 L 2.699219 -3.941406 L 3.292969 -3.941406 C 4.429688 -3.941406 6.101562 -5.453125 6.101562 -8.261719 C 6.101562 -10.890625 4.429688 -12.601562 3.292969 -12.601562 Z M 4.429688 -6.28125 C 4.429688 -5.867188 3.976562 -5.183594 3.472656 -5.183594 L 2.699219 -5.183594 L 2.699219 -11.359375 L 3.382812 -11.339844 C 4.050781 -11.339844 4.429688 -10.636719 4.429688 -10.207031 Z M 4.429688 -6.28125 "/></g></g></g><g fill="#ffffff" fill-opacity="1"><g transform="translate(333.793475, 241.045019)"><g><path d="M 4.804688 -3.113281 C 4.519531 -2.339844 4.015625 -1.007812 3.113281 -1.007812 L 2.464844 -1.007812 L 2.464844 -6.371094 C 3.203125 -6.335938 3.582031 -6.011719 3.90625 -5.164062 L 4.015625 -5.21875 C 3.816406 -5.832031 3.816406 -6.40625 3.816406 -6.820312 C 3.816406 -7.363281 3.816406 -7.9375 4.015625 -8.550781 L 3.90625 -8.605469 C 3.582031 -7.738281 3.203125 -7.414062 2.464844 -7.398438 L 2.464844 -10.675781 L 3.078125 -10.675781 C 3.996094 -10.675781 4.480469 -9.34375 4.769531 -8.550781 L 4.878906 -8.621094 C 4.570312 -9.59375 4.445312 -10.960938 4.625 -11.664062 L 0.808594 -11.664062 L 0.808594 -11.574219 C 0.808594 -11.574219 1.042969 -11.554688 1.042969 -11.050781 L 1.042969 -0.613281 C 1.042969 -0.125 0.808594 -0.0898438 0.808594 -0.0898438 L 0.808594 0 L 4.644531 0 C 4.480469 -0.703125 4.589844 -2.070312 4.914062 -3.042969 Z M 4.804688 -3.113281 "/></g></g></g><g fill="#ffffff" fill-opacity="1"><g transform="translate(340.669452, 241.045019)"><g><path d="M 3.132812 -11.84375 C 1.566406 -11.84375 0.539062 -9.449219 0.539062 -5.832031 C 0.539062 -1.925781 1.585938 0.160156 3.132812 0.160156 C 4.699219 0.160156 5.707031 -1.945312 5.707031 -5.832031 C 5.707031 -9.46875 4.699219 -11.84375 3.132812 -11.84375 Z M 4.15625 -2.195312 C 4.15625 -1.53125 3.691406 -0.972656 3.132812 -0.972656 C 2.574219 -0.972656 2.105469 -1.53125 2.105469 -2.195312 L 2.105469 -9.46875 C 2.105469 -10.132812 2.574219 -10.675781 3.132812 -10.675781 C 3.691406 -10.675781 4.15625 -10.132812 4.15625 -9.46875 Z M 4.15625 -2.195312 "/></g></g></g><g fill="#ffffff" fill-opacity="1"><g transform="translate(348.51742, 241.045019)"><g><path d="M 0.808594 -11.664062 L 0.808594 -11.574219 C 0.808594 -11.574219 1.042969 -11.554688 1.042969 -11.050781 L 1.042969 -0.613281 C 1.042969 -0.125 0.808594 -0.0898438 0.808594 -0.0898438 L 0.808594 0 L 2.71875 0 L 2.71875 -0.0898438 C 2.71875 -0.0898438 2.484375 -0.125 2.484375 -0.628906 L 2.484375 -3.636719 L 3.042969 -3.636719 C 4.085938 -3.636719 5.632812 -5.058594 5.632812 -7.648438 C 5.632812 -10.078125 4.085938 -11.664062 3.042969 -11.664062 Z M 4.066406 -5.8125 C 4.066406 -5.4375 3.671875 -4.789062 3.203125 -4.789062 L 2.484375 -4.789062 L 2.484375 -10.511719 L 3.113281 -10.511719 C 3.726562 -10.511719 4.066406 -9.847656 4.066406 -9.449219 Z M 4.066406 -5.8125 "/></g></g></g><g fill="#ffffff" fill-opacity="1"><g transform="translate(356.11339, 241.045019)"><g><path d="M 4.878906 -3.113281 C 4.570312 -2.339844 4.085938 -1.007812 3.1875 -1.007812 L 2.464844 -1.007812 L 2.464844 -11.050781 C 2.464844 -11.554688 2.71875 -11.574219 2.71875 -11.574219 L 2.71875 -11.664062 L 0.808594 -11.664062 L 0.808594 -11.574219 C 0.808594 -11.574219 1.042969 -11.554688 1.042969 -11.050781 L 1.042969 -0.613281 C 1.042969 -0.125 0.808594 -0.0898438 0.808594 -0.0898438 L 0.808594 0 L 4.714844 0 C 4.554688 -0.703125 4.660156 -2.070312 4.96875 -3.042969 Z M 4.878906 -3.113281 "/></g></g></g><g fill="#ffffff" fill-opacity="1"><g transform="translate(362.77337, 241.045019)"><g><path d="M 4.804688 -3.113281 C 4.519531 -2.339844 4.015625 -1.007812 3.113281 -1.007812 L 2.464844 -1.007812 L 2.464844 -6.371094 C 3.203125 -6.335938 3.582031 -6.011719 3.90625 -5.164062 L 4.015625 -5.21875 C 3.816406 -5.832031 3.816406 -6.40625 3.816406 -6.820312 C 3.816406 -7.363281 3.816406 -7.9375 4.015625 -8.550781 L 3.90625 -8.605469 C 3.582031 -7.738281 3.203125 -7.414062 2.464844 -7.398438 L 2.464844 -10.675781 L 3.078125 -10.675781 C 3.996094 -10.675781 4.480469 -9.34375 4.769531 -8.550781 L 4.878906 -8.621094 C 4.570312 -9.59375 4.445312 -10.960938 4.625 -11.664062 L 0.808594 -11.664062 L 0.808594 -11.574219 C 0.808594 -11.574219 1.042969 -11.554688 1.042969 -11.050781 L 1.042969 -0.613281 C 1.042969 -0.125 0.808594 -0.0898438 0.808594 -0.0898438 L 0.808594 0 L 4.644531 0 C 4.480469 -0.703125 4.589844 -2.070312 4.914062 -3.042969 Z M 4.804688 -3.113281 "/></g></g></g></svg>