<svg xmlns="http://www.w3.org/2000/svg" xmlns:xlink="http://www.w3.org/1999/xlink" width="500" zoomAndPan="magnify" viewBox="0 0 375 374.999991" height="500" preserveAspectRatio="xMidYMid meet" version="1.0"><defs><g/><clipPath id="id1"><path d="M 167.136719 179 L 183 179 L 183 205.347656 L 167.136719 205.347656 Z M 167.136719 179 " clip-rule="nonzero"/></clipPath><clipPath id="id2"><path d="M 182 179 L 197.136719 179 L 197.136719 205.347656 L 182 205.347656 Z M 182 179 " clip-rule="nonzero"/></clipPath><clipPath id="id3"><path d="M 167.136719 170.097656 L 197.136719 170.097656 L 197.136719 189 L 167.136719 189 Z M 167.136719 170.097656 " clip-rule="nonzero"/></clipPath></defs><g fill="#ffffff" fill-opacity="1"><g transform="translate(92.423436, 202.836183)"><g><path d="M 16.796875 -27.28125 C 16.671875 -28.390625 17.207031 -28.46875 17.207031 -28.46875 L 17.207031 -28.675781 L 12.289062 -28.675781 L 12.289062 -28.46875 C 12.289062 -28.46875 12.863281 -28.390625 12.617188 -27.160156 L 10.816406 -17.371094 L 8.972656 -27.324219 C 8.808594 -28.390625 9.300781 -28.46875 9.300781 -28.46875 L 9.300781 -28.675781 L 4.425781 -28.675781 L 4.425781 -28.46875 C 4.425781 -28.46875 4.914062 -28.390625 4.832031 -27.363281 L 1.1875 -1.515625 C 1.023438 -0.285156 0.410156 -0.203125 0.410156 -0.203125 L 0.410156 0 L 4.507812 0 L 4.507812 -0.203125 C 4.507812 -0.203125 3.933594 -0.285156 4.097656 -1.515625 L 6.675781 -20.5625 L 10.28125 -2.046875 L 10.527344 -2.046875 L 14.132812 -20.5625 L 16.714844 -1.515625 C 16.917969 -0.285156 16.34375 -0.203125 16.34375 -0.203125 L 16.34375 0 L 21.179688 0 L 21.179688 -0.203125 C 21.179688 -0.203125 20.605469 -0.285156 20.402344 -1.515625 Z M 16.796875 -27.28125 "/></g></g></g><g fill="#ffffff" fill-opacity="1"><g transform="translate(117.653692, 202.836183)"><g><path d="M 10.9375 -7.085938 C 10.28125 -5.324219 9.136719 -2.292969 7.085938 -2.292969 L 5.613281 -2.292969 L 5.613281 -14.5 C 7.292969 -14.417969 8.152344 -13.683594 8.890625 -11.757812 L 9.136719 -11.878906 C 8.683594 -13.273438 8.683594 -14.582031 8.683594 -15.527344 C 8.683594 -16.753906 8.683594 -18.066406 9.136719 -19.457031 L 8.890625 -19.582031 C 8.152344 -17.613281 7.292969 -16.878906 5.613281 -16.835938 L 5.613281 -24.292969 L 7.003906 -24.292969 C 9.09375 -24.292969 10.199219 -21.261719 10.855469 -19.457031 L 11.101562 -19.621094 C 10.40625 -21.835938 10.117188 -24.949219 10.527344 -26.546875 L 1.84375 -26.546875 L 1.84375 -26.339844 C 1.84375 -26.339844 2.375 -26.300781 2.375 -25.152344 L 2.375 -1.394531 C 2.375 -0.285156 1.84375 -0.203125 1.84375 -0.203125 L 1.84375 0 L 10.570312 0 C 10.199219 -1.597656 10.445312 -4.710938 11.183594 -6.921875 Z M 10.9375 -7.085938 "/></g></g></g><g fill="#ffffff" fill-opacity="1"><g transform="translate(133.300013, 202.836183)"><g><path d="M 0.777344 -26.546875 C 1.148438 -24.949219 0.902344 -21.835938 0.203125 -19.621094 L 0.410156 -19.457031 C 1.105469 -21.261719 2.210938 -24.292969 4.261719 -24.292969 L 4.671875 -24.292969 L 4.671875 -1.394531 C 4.671875 -0.285156 4.136719 -0.203125 4.136719 -0.203125 L 4.136719 0 L 8.4375 0 L 8.4375 -0.203125 C 8.4375 -0.203125 7.90625 -0.285156 7.90625 -1.433594 L 7.90625 -24.292969 L 8.273438 -24.292969 C 10.363281 -24.292969 11.46875 -21.261719 12.125 -19.457031 L 12.371094 -19.621094 C 11.675781 -21.835938 11.386719 -24.949219 11.796875 -26.546875 Z M 0.777344 -26.546875 "/></g></g></g><g fill="#ffffff" fill-opacity="1"><g transform="translate(149.51974, 202.836183)"><g><path d="M 8.480469 -25.152344 C 8.316406 -26.300781 8.847656 -26.339844 8.847656 -26.339844 L 8.847656 -26.546875 L 4.300781 -26.546875 L 4.300781 -26.339844 C 4.300781 -26.339844 4.832031 -26.300781 4.628906 -25.152344 L 0.984375 -1.394531 C 0.777344 -0.285156 0.203125 -0.203125 0.203125 -0.203125 L 0.203125 0 L 3.972656 0 L 3.972656 -0.203125 C 3.972656 -0.203125 3.441406 -0.285156 3.644531 -1.433594 L 4.300781 -5.570312 L 8.109375 -5.570312 L 8.765625 -1.269531 C 8.929688 -0.285156 8.4375 -0.203125 8.4375 -0.203125 L 8.4375 0 L 12.902344 0 L 12.902344 -0.203125 C 12.902344 -0.203125 12.371094 -0.285156 12.167969 -1.433594 Z M 6.1875 -19.007812 L 7.785156 -7.867188 L 4.628906 -7.867188 Z M 6.1875 -19.007812 "/></g></g></g><g fill="#ffffff" fill-opacity="1"><g transform="translate(166.263275, 202.836183)"><g/></g></g><g fill="#ffffff" fill-opacity="1"><g transform="translate(178.673995, 202.836183)"><g/></g></g><g fill="#ffffff" fill-opacity="1"><g transform="translate(191.084716, 202.836183)"><g/></g></g><g fill="#ffffff" fill-opacity="1"><g transform="translate(203.493741, 202.836183)"><g><path d="M 13.273438 -28.632812 C 13.273438 -28.675781 10.816406 -28.675781 1.066406 -28.632812 C 1.230469 -27.9375 1.230469 -26.953125 1.230469 -26.832031 C 1.230469 -23.226562 0.410156 -21.753906 0.410156 -21.015625 C 0.410156 -20.277344 0.859375 -19.746094 1.558594 -19.746094 C 2.253906 -19.746094 2.703125 -20.277344 2.703125 -20.890625 C 2.703125 -21.546875 2.171875 -22 1.597656 -22 C 1.351562 -22 1.105469 -21.917969 0.941406 -21.753906 C 1.71875 -23.679688 2.910156 -26.175781 4.875 -26.175781 L 5.40625 -26.175781 L 5.40625 -1.515625 C 5.40625 -0.285156 4.832031 -0.203125 4.832031 -0.203125 L 4.832031 0 L 9.503906 0 L 9.503906 -0.203125 C 9.503906 -0.203125 8.929688 -0.285156 8.929688 -1.515625 L 8.929688 -26.175781 L 9.464844 -26.175781 C 11.429688 -26.175781 12.617188 -23.679688 13.394531 -21.753906 C 13.230469 -21.917969 12.984375 -22 12.738281 -22 C 12.167969 -22 11.632812 -21.546875 11.632812 -20.890625 C 11.632812 -20.277344 12.085938 -19.746094 12.78125 -19.746094 C 13.476562 -19.746094 13.929688 -20.277344 13.929688 -21.015625 C 13.929688 -21.753906 13.109375 -23.226562 13.109375 -26.832031 C 13.109375 -26.953125 13.109375 -27.9375 13.273438 -28.632812 Z M 13.273438 -28.632812 "/></g></g></g><g fill="#ffffff" fill-opacity="1"><g transform="translate(221.47461, 202.836183)"><g><path d="M 10.9375 -7.085938 C 10.28125 -5.324219 9.136719 -2.292969 7.085938 -2.292969 L 5.613281 -2.292969 L 5.613281 -14.5 C 7.292969 -14.417969 8.152344 -13.683594 8.890625 -11.757812 L 9.136719 -11.878906 C 8.683594 -13.273438 8.683594 -14.582031 8.683594 -15.527344 C 8.683594 -16.753906 8.683594 -18.066406 9.136719 -19.457031 L 8.890625 -19.582031 C 8.152344 -17.613281 7.292969 -16.878906 5.613281 -16.835938 L 5.613281 -24.292969 L 7.003906 -24.292969 C 9.09375 -24.292969 10.199219 -21.261719 10.855469 -19.457031 L 11.101562 -19.621094 C 10.40625 -21.835938 10.117188 -24.949219 10.527344 -26.546875 L 1.84375 -26.546875 L 1.84375 -26.339844 C 1.84375 -26.339844 2.375 -26.300781 2.375 -25.152344 L 2.375 -1.394531 C 2.375 -0.285156 1.84375 -0.203125 1.84375 -0.203125 L 1.84375 0 L 10.570312 0 C 10.199219 -1.597656 10.445312 -4.710938 11.183594 -6.921875 Z M 10.9375 -7.085938 "/></g></g></g><g fill="#ffffff" fill-opacity="1"><g transform="translate(237.120929, 202.836183)"><g><path d="M 8.890625 -26.339844 C 8.890625 -26.339844 9.421875 -26.300781 9.421875 -25.152344 L 9.421875 -11.46875 L 5.367188 -26.546875 L 1.433594 -26.546875 L 1.433594 -26.339844 C 1.433594 -26.339844 1.964844 -26.300781 1.964844 -25.152344 L 1.964844 -1.394531 C 1.964844 -0.285156 1.433594 -0.203125 1.433594 -0.203125 L 1.433594 0 L 5.203125 0 L 5.203125 -0.203125 C 5.203125 -0.203125 4.671875 -0.285156 4.671875 -1.433594 L 4.671875 -17.289062 L 9.421875 0 L 12.125 0 L 12.125 -25.152344 C 12.125 -26.300781 12.65625 -26.339844 12.65625 -26.339844 L 12.65625 -26.546875 L 8.890625 -26.546875 Z M 8.890625 -26.339844 "/></g></g></g><g fill="#ffffff" fill-opacity="1"><g transform="translate(254.856058, 202.836183)"><g><path d="M 8.644531 -18.269531 C 8.683594 -20.441406 10.035156 -25.355469 11.019531 -26.871094 L 10.855469 -26.996094 C 10.488281 -26.464844 9.953125 -26.257812 9.21875 -26.21875 C 7.824219 -26.21875 7.25 -26.953125 6.144531 -26.953125 C 3.644531 -26.914062 0.613281 -23.144531 0.613281 -19.992188 C 0.613281 -15.199219 7.496094 -8.929688 7.496094 -4.507812 C 7.496094 -3.15625 6.839844 -2.457031 5.160156 -2.292969 C 2.128906 -2.335938 1.800781 -4.507812 0.859375 -7.128906 L 0.613281 -7.003906 C 1.269531 -4.875 1.433594 -1.476562 0.984375 0.246094 L 1.1875 0.328125 C 1.1875 0.328125 1.515625 -0.246094 2.375 -0.246094 C 3.234375 -0.203125 3.933594 0.367188 5.078125 0.410156 C 7.785156 0.410156 10.816406 -2.910156 10.816406 -5.941406 C 10.816406 -10.527344 3.933594 -16.917969 3.933594 -21.671875 C 3.933594 -23.308594 4.792969 -24.292969 6.1875 -24.292969 C 8.972656 -24.332031 8.316406 -20.359375 8.398438 -18.269531 Z M 8.644531 -18.269531 "/></g></g></g><g fill="#ffffff" fill-opacity="1"><g transform="translate(269.928984, 202.836183)"><g><path d="M 7.128906 -26.953125 C 3.5625 -26.953125 1.230469 -21.507812 1.230469 -13.273438 C 1.230469 -4.382812 3.605469 0.367188 7.128906 0.367188 C 10.691406 0.367188 12.984375 -4.425781 12.984375 -13.273438 C 12.984375 -21.546875 10.691406 -26.953125 7.128906 -26.953125 Z M 9.464844 -4.996094 C 9.464844 -3.480469 8.398438 -2.210938 7.128906 -2.210938 C 5.859375 -2.210938 4.792969 -3.480469 4.792969 -4.996094 L 4.792969 -21.546875 C 4.792969 -23.0625 5.859375 -24.292969 7.128906 -24.292969 C 8.398438 -24.292969 9.464844 -23.0625 9.464844 -21.546875 Z M 9.464844 -4.996094 "/></g></g></g><g fill="#ffffff" fill-opacity="1"><g transform="translate(287.786991, 202.836183)"><g><path d="M 9.011719 -11.183594 C 10.691406 -12.207031 12.207031 -14.746094 12.207031 -18.640625 C 12.207031 -23.433594 9.464844 -26.546875 7.375 -26.546875 L 1.84375 -26.546875 L 1.84375 -26.339844 C 1.84375 -26.339844 2.375 -26.300781 2.375 -25.152344 L 2.375 -1.394531 C 2.375 -0.285156 1.84375 -0.203125 1.84375 -0.203125 L 1.84375 0 L 6.144531 0 L 6.144531 -0.203125 C 6.144531 -0.203125 5.613281 -0.285156 5.613281 -1.433594 L 5.613281 -10.691406 L 6.511719 -10.691406 C 8.398438 0.820312 10.324219 0 13.640625 0 L 13.640625 -0.203125 C 11.839844 -0.203125 10.691406 -5.570312 10.117188 -10.445312 Z M 7.785156 -23.964844 C 8.273438 -23.964844 8.644531 -23.351562 8.644531 -22.613281 L 8.644531 -14.625 C 8.644531 -13.886719 8.273438 -13.273438 7.785156 -13.273438 L 5.613281 -13.273438 L 5.613281 -23.964844 Z M 7.785156 -23.964844 "/></g></g></g><g clip-path="url(#id1)"><path fill="#77838d" d="M 182.136719 190.71875 L 182.136719 188.042969 L 167.140625 188.042969 L 167.140625 196.371094 L 182.136719 196.371094 L 182.136719 190.71875 M 167.140625 196.371094 L 182.136719 205.347656 L 182.136719 196.371094 L 167.140625 196.371094 M 167.140625 179.070312 L 182.136719 179.070312 L 182.136719 188.042969 L 167.140625 188.042969 L 167.140625 179.070312 " fill-opacity="1" fill-rule="nonzero"/></g><g clip-path="url(#id2)"><path fill="#9aa7b2" d="M 182.136719 188.042969 L 182.136719 196.371094 L 197.136719 196.371094 L 197.136719 188.042969 L 182.136719 188.042969 M 182.136719 179.070312 L 197.136719 179.070312 L 197.136719 188.042969 L 182.136719 188.042969 L 182.136719 179.070312 M 182.136719 205.347656 L 197.136719 196.371094 L 182.136719 196.371094 L 182.136719 205.347656 " fill-opacity="1" fill-rule="nonzero"/></g><g clip-path="url(#id3)"><path fill="#c7d0d8" d="M 182.136719 188.042969 L 167.140625 179.070312 L 182.136719 170.097656 L 197.136719 179.070312 L 182.136719 188.042969 " fill-opacity="1" fill-rule="nonzero"/></g></svg>